<svg width="128" height="128" viewBox="0 0 128 128" fill="none" xmlns="http://www.w3.org/2000/svg">
<g clip-path="url(#clip0_14_1510)">
<path fill-rule="evenodd" clip-rule="evenodd" d="M127.822 27.0915C111.891 10.4229 89.1924 0 63.9995 0C38.8067 0 16.109 10.422 0.178097 27.0915C0.0593656 29.093 0 31.1085 0 33.1382C0 75.6775 26.3593 112.205 64.0005 128C101.641 112.205 128 75.6775 128 33.1382C128 31.1079 127.941 29.0924 127.822 27.0915" fill="url(#paint0_linear_14_1510)"/>
<path fill-rule="evenodd" clip-rule="evenodd" d="M28.1799 68.5929L64.0005 103.568L99.821 68.5929L101.838 66.6233C111.69 57.005 111.69 41.2662 101.838 31.6479C91.9866 22.0297 75.8684 22.0288 66.0177 31.6479L64.0005 33.6166L61.9833 31.6479C52.1326 22.0288 36.0134 22.0288 26.1618 31.6479C16.3102 41.2671 16.3111 57.005 26.1618 66.6233L28.1799 68.5929Z" fill="url(#paint1_linear_14_1510)"/>
<path fill-rule="evenodd" clip-rule="evenodd" d="M63.9995 18.2256C86.3013 18.2256 106.396 28.352 120.498 43.1088C120.602 44.8801 119.193 71.4905 116.478 80.0429C123.845 65.971 128 50.0276 128 33.1382C128 31.1091 127.941 29.0936 127.822 27.0915C111.892 10.422 89.1924 0 63.9995 0C38.8067 0 16.109 10.4211 0.178097 27.0915C0.0593656 29.093 0 31.1085 0 33.1382C0 50.0276 4.15252 65.9701 11.5219 80.0429C8.80703 71.4833 7.39794 44.8801 7.50129 43.1088C21.6042 28.352 41.6977 18.2256 63.9995 18.2256Z" fill="url(#paint2_linear_14_1510)" fill-opacity="0.2"/>
<path fill-rule="evenodd" clip-rule="evenodd" d="M33.0614 47.2128C41.1164 39.347 54.2956 39.347 62.3505 47.2128L64.0005 48.8239L65.6495 47.2128C73.7035 39.3479 86.8836 39.3479 94.9386 47.2128C100.891 53.0262 102.445 61.5722 99.5986 68.8109L99.821 68.5938L101.838 66.6251C111.69 57.0068 111.69 41.268 101.838 31.6488C91.9866 22.0297 75.8684 22.0297 66.0177 31.6488L64.0005 33.6193L61.9824 31.6488C52.1317 22.0297 36.0134 22.0297 26.1618 31.6488C16.3102 41.268 16.3111 57.0059 26.1618 66.6242L28.179 68.5929L28.4023 68.81C25.5546 61.5713 27.1104 53.0253 33.0614 47.2128" fill="white" fill-opacity="0.2"/>
</g>
<defs>
<linearGradient id="paint0_linear_14_1510" x1="64" y1="0" x2="64" y2="128" gradientUnits="userSpaceOnUse">
<stop stop-color="#6CDCFF"/>
<stop offset="1" stop-color="#1961A3"/>
</linearGradient>
<linearGradient id="paint1_linear_14_1510" x1="64.0002" y1="24.4336" x2="64.0002" y2="103.568" gradientUnits="userSpaceOnUse">
<stop stop-color="#9ADEFF"/>
<stop offset="1" stop-color="#82CFF4" stop-opacity="0"/>
</linearGradient>
<linearGradient id="paint2_linear_14_1510" x1="64" y1="0" x2="64" y2="80.0429" gradientUnits="userSpaceOnUse">
<stop stop-color="white"/>
<stop offset="1" stop-color="white" stop-opacity="0"/>
</linearGradient>
<clipPath id="clip0_14_1510">
<rect width="128" height="128" fill="white"/>
</clipPath>
</defs>
</svg>
