<svg width="37" height="37" viewBox="0 0 37 37" fill="none" xmlns="http://www.w3.org/2000/svg">
<g clip-path="url(#clip0_1_650)">
<path fill-rule="evenodd" clip-rule="evenodd" d="M18.5 -0.000120044C28.7172 -0.000120044 36.9999 8.28272 36.9999 18.5C36.9999 28.7169 28.7172 36.9997 18.5 36.9997C8.28268 36.9997 -7.99894e-05 28.7169 -7.99894e-05 18.5C-7.99894e-05 8.28272 8.28268 -0.000120044 18.5 -0.000120044Z" fill="url(#paint0_linear_1_650)"/>
<path d="M19.632 14.012H23.904C24.2133 14.012 24.4747 14.1187 24.688 14.332C24.9013 14.5453 25.008 14.8067 25.008 15.116V18.988C25.008 20.8227 24.624 22.268 23.856 23.324C23.2373 24.188 22.2613 24.972 20.928 25.676C20.6613 25.8147 20.3787 25.8307 20.08 25.724C19.7813 25.628 19.5627 25.4413 19.424 25.164L19.056 24.46C18.9173 24.204 18.8907 23.932 18.976 23.644C19.072 23.356 19.248 23.1373 19.504 22.988C20.1333 22.6253 20.5973 22.2627 20.896 21.9C21.1307 21.612 21.3013 21.3187 21.408 21.02C21.472 20.8493 21.472 20.6893 21.408 20.54C21.344 20.38 21.232 20.252 21.072 20.156C20.912 20.06 20.7307 20.012 20.528 20.012H19.632C19.3227 20.012 19.0613 19.9053 18.848 19.692C18.6347 19.4787 18.528 19.2227 18.528 18.924V15.116C18.528 14.8067 18.6347 14.5453 18.848 14.332C19.072 14.1187 19.3333 14.012 19.632 14.012ZM12.096 14.012H16.368C16.6773 14.012 16.9387 14.1187 17.152 14.332C17.3653 14.5453 17.472 14.8067 17.472 15.116V18.988C17.472 20.8227 17.088 22.268 16.32 23.324C15.7013 24.188 14.7253 24.972 13.392 25.676C13.1253 25.8147 12.8427 25.8307 12.544 25.724C12.256 25.628 12.0373 25.4413 11.888 25.164L11.52 24.46C11.3813 24.204 11.3547 23.932 11.44 23.644C11.536 23.356 11.712 23.1373 11.968 22.988C12.6187 22.6147 13.0827 22.252 13.36 21.9C13.5947 21.612 13.7653 21.3187 13.872 21.02C13.936 20.8493 13.936 20.6893 13.872 20.54C13.808 20.38 13.696 20.252 13.536 20.156C13.376 20.06 13.1947 20.012 12.992 20.012H12.096C11.7973 20.012 11.5413 19.9053 11.328 19.692C11.1147 19.4787 11.008 19.2227 11.008 18.924V15.116C11.008 14.8067 11.1147 14.5453 11.328 14.332C11.5413 14.1187 11.7973 14.012 12.096 14.012Z" fill="white"/>
</g>
<defs>
<linearGradient id="paint0_linear_1_650" x1="-2" y1="16.6667" x2="69.5703" y2="35.8751" gradientUnits="userSpaceOnUse">
<stop stop-color="#47C2FF"/>
<stop offset="1" stop-color="#63CBFE" stop-opacity="0.65"/>
</linearGradient>
<clipPath id="clip0_1_650">
<rect width="37" height="37" fill="white"/>
</clipPath>
</defs>
</svg>
