<svg width="18" height="18" viewBox="0 0 18 18" fill="none" xmlns="http://www.w3.org/2000/svg">
<path d="M9 0.249878C4.16797 0.249878 0.25 4.16785 0.25 8.99988C0.25 13.8319 4.16797 17.7499 9 17.7499C13.832 17.7499 17.75 13.8319 17.75 8.99988C17.75 4.16785 13.832 0.249878 9 0.249878ZM12.7793 6.14246L8.66602 11.8456C8.60853 11.9258 8.53274 11.9912 8.44493 12.0363C8.35713 12.0814 8.25984 12.1049 8.16113 12.1049C8.06242 12.1049 7.96513 12.0814 7.87733 12.0363C7.78953 11.9912 7.71374 11.9258 7.65625 11.8456L5.2207 8.47058C5.14648 8.36707 5.2207 8.22253 5.34766 8.22253H6.26367C6.46289 8.22253 6.65234 8.31824 6.76953 8.4823L8.16016 10.412L11.2305 6.15417C11.3477 5.99207 11.5352 5.89441 11.7363 5.89441H12.6523C12.7793 5.89441 12.8535 6.03894 12.7793 6.14246V6.14246Z" fill="#40A3F8"/>
</svg>
