<svg width="226" height="47" viewBox="0 0 226 47" fill="none" xmlns="http://www.w3.org/2000/svg">
<path d="M3.22677 34C3.01587 34 2.83661 33.9367 2.68898 33.8102C2.54135 33.6626 2.46753 33.4727 2.46753 33.2408V12.6464C2.46753 12.4144 2.54135 12.2246 2.68898 12.0769C2.83661 11.9293 3.01587 11.8555 3.22677 11.8555H6.10556C6.33755 11.8555 6.51681 11.9293 6.64335 12.0769C6.79098 12.2246 6.8648 12.4144 6.8648 12.6464V20.8082H16.1971V12.6464C16.1971 12.4144 16.2709 12.2246 16.4186 12.0769C16.5662 11.9293 16.7455 11.8555 16.9564 11.8555H19.8035C20.0355 11.8555 20.2253 11.9293 20.3729 12.0769C20.5206 12.2246 20.5944 12.4144 20.5944 12.6464V33.2408C20.5944 33.4517 20.5206 33.6309 20.3729 33.7786C20.2253 33.9262 20.0355 34 19.8035 34H16.9564C16.7455 34 16.5662 33.9262 16.4186 33.7786C16.2709 33.6309 16.1971 33.4517 16.1971 33.2408V24.7626H6.8648V33.2408C6.8648 33.4517 6.79098 33.6309 6.64335 33.7786C6.51681 33.9262 6.33755 34 6.10556 34H3.22677ZM27.2734 34C27.0625 34 26.8832 33.9262 26.7356 33.7786C26.5879 33.6309 26.5141 33.4517 26.5141 33.2408V12.6464C26.5141 12.4144 26.5879 12.2246 26.7356 12.0769C26.8832 11.9293 27.0625 11.8555 27.2734 11.8555H41.1928C41.4248 11.8555 41.6146 11.9293 41.7622 12.0769C41.9098 12.2246 41.9836 12.4144 41.9836 12.6464V14.7343C41.9836 14.9452 41.9098 15.1244 41.7622 15.2721C41.6146 15.4197 41.4248 15.4935 41.1928 15.4935H30.7848V21.0929H40.4968C40.7288 21.0929 40.9186 21.1667 41.0662 21.3144C41.2139 21.4409 41.2877 21.6202 41.2877 21.8522V23.8135C41.2877 24.0455 41.2139 24.2353 41.0662 24.383C40.9186 24.5095 40.7288 24.5728 40.4968 24.5728H30.7848V30.362H41.4458C41.6778 30.362 41.8676 30.4358 42.0153 30.5834C42.1629 30.731 42.2367 30.9209 42.2367 31.1528V33.2408C42.2367 33.4517 42.1629 33.6309 42.0153 33.7786C41.8676 33.9262 41.6778 34 41.4458 34H27.2734ZM45.833 34C45.6643 34 45.5061 33.9367 45.3585 33.8102C45.2319 33.6836 45.1687 33.5255 45.1687 33.3357C45.1687 33.2513 45.1898 33.1564 45.2319 33.0509L52.856 12.6464C52.9193 12.4355 53.0352 12.2562 53.204 12.1086C53.3938 11.9399 53.6469 11.8555 53.9632 11.8555H57.4114C57.7278 11.8555 57.9703 11.9399 58.139 12.1086C58.3077 12.2562 58.4343 12.4355 58.5186 12.6464L66.1427 33.0509C66.1638 33.1564 66.1743 33.2513 66.1743 33.3357C66.1743 33.5255 66.111 33.6836 65.9845 33.8102C65.858 33.9367 65.7103 34 65.5416 34H62.7894C62.4941 34 62.2727 33.9367 62.125 33.8102C61.9985 33.6626 61.9141 33.5255 61.872 33.3989L60.3851 29.5395H50.9895L49.5027 33.3989C49.4605 33.5255 49.3656 33.6626 49.218 33.8102C49.0914 33.9367 48.8805 34 48.5853 34H45.833ZM52.0967 25.9014H59.2779L55.6715 16.1262L52.0967 25.9014ZM70.887 34C70.6761 34 70.4968 33.9262 70.3492 33.7786C70.2016 33.6309 70.1277 33.4517 70.1277 33.2408V12.6147C70.1277 12.4038 70.2016 12.2246 70.3492 12.0769C70.4968 11.9293 70.6761 11.8555 70.887 11.8555H73.829C74.0399 11.8555 74.2192 11.9293 74.3668 12.0769C74.5145 12.2246 74.5883 12.4038 74.5883 12.6147V30.2354H84.6166C84.8486 30.2354 85.0384 30.3092 85.186 30.4569C85.3336 30.6045 85.4074 30.7943 85.4074 31.0263V33.2408C85.4074 33.4517 85.3336 33.6309 85.186 33.7786C85.0384 33.9262 84.8486 34 84.6166 34H70.887ZM91.5259 34C91.315 34 91.1357 33.9262 90.9881 33.7786C90.8405 33.6309 90.7667 33.4517 90.7667 33.2408V15.7466H84.9142C84.7033 15.7466 84.524 15.6728 84.3764 15.5252C84.2288 15.3775 84.1549 15.1983 84.1549 14.9874V12.6464C84.1549 12.4144 84.2288 12.2246 84.3764 12.0769C84.524 11.9293 84.7033 11.8555 84.9142 11.8555H101.048C101.28 11.8555 101.47 11.9293 101.617 12.0769C101.765 12.2246 101.839 12.4144 101.839 12.6464V14.9874C101.839 15.1983 101.765 15.3775 101.617 15.5252C101.47 15.6728 101.28 15.7466 101.048 15.7466H95.2272V33.2408C95.2272 33.4517 95.1534 33.6309 95.0057 33.7786C94.8581 33.9262 94.6683 34 94.4363 34H91.5259ZM106.808 34C106.597 34 106.418 33.9367 106.27 33.8102C106.123 33.6626 106.049 33.4727 106.049 33.2408V12.6464C106.049 12.4144 106.123 12.2246 106.27 12.0769C106.418 11.9293 106.597 11.8555 106.808 11.8555H109.687C109.919 11.8555 110.098 11.9293 110.225 12.0769C110.372 12.2246 110.446 12.4144 110.446 12.6464V20.8082H119.778V12.6464C119.778 12.4144 119.852 12.2246 120 12.0769C120.148 11.9293 120.327 11.8555 120.538 11.8555H123.385C123.617 11.8555 123.807 11.9293 123.954 12.0769C124.102 12.2246 124.176 12.4144 124.176 12.6464V33.2408C124.176 33.4517 124.102 33.6309 123.954 33.7786C123.807 33.9262 123.617 34 123.385 34H120.538C120.327 34 120.148 33.9262 120 33.7786C119.852 33.6309 119.778 33.4517 119.778 33.2408V24.7626H110.446V33.2408C110.446 33.4517 110.372 33.6309 110.225 33.7786C110.098 33.9262 109.919 34 109.687 34H106.808ZM138.637 34.3164C136.676 34.3164 135.009 33.9789 133.639 33.304C132.289 32.6081 131.255 31.6274 130.538 30.362C129.821 29.0755 129.421 27.5359 129.336 25.7433C129.315 24.8786 129.305 23.9506 129.305 22.9594C129.305 21.9682 129.315 21.0191 129.336 20.1122C129.421 18.3407 129.821 16.8116 130.538 15.5252C131.276 14.2387 132.32 13.258 133.67 12.5831C135.041 11.8871 136.697 11.5391 138.637 11.5391C140.071 11.5391 141.358 11.729 142.496 12.1086C143.635 12.4882 144.605 13.0154 145.407 13.6903C146.208 14.3441 146.83 15.1139 147.273 15.9997C147.716 16.8855 147.948 17.8451 147.969 18.8785C147.99 19.0683 147.927 19.2265 147.779 19.353C147.653 19.4795 147.495 19.5428 147.305 19.5428H144.3C144.068 19.5428 143.878 19.4901 143.73 19.3846C143.583 19.2581 143.477 19.0577 143.414 18.7836C143.076 17.3916 142.496 16.4426 141.674 15.9364C140.851 15.4303 139.828 15.1772 138.605 15.1772C137.192 15.1772 136.064 15.5779 135.22 16.3793C134.377 17.1596 133.923 18.4567 133.86 20.2704C133.797 21.9998 133.797 23.7713 133.86 25.5851C133.923 27.3988 134.377 28.7064 135.22 29.5078C136.064 30.2882 137.192 30.6783 138.605 30.6783C139.828 30.6783 140.851 30.4252 141.674 29.9191C142.496 29.3918 143.076 28.4428 143.414 27.0719C143.477 26.7767 143.583 26.5763 143.73 26.4709C143.878 26.3654 144.068 26.3127 144.3 26.3127H147.305C147.495 26.3127 147.653 26.376 147.779 26.5025C147.927 26.629 147.99 26.7872 147.969 26.977C147.948 28.0104 147.716 28.97 147.273 29.8558C146.83 30.7416 146.208 31.5219 145.407 32.1968C144.605 32.8506 143.635 33.3673 142.496 33.7469C141.358 34.1265 140.071 34.3164 138.637 34.3164ZM151.113 34C150.945 34 150.787 33.9367 150.639 33.8102C150.512 33.6836 150.449 33.5255 150.449 33.3357C150.449 33.2513 150.47 33.1564 150.512 33.0509L158.136 12.6464C158.2 12.4355 158.316 12.2562 158.484 12.1086C158.674 11.9399 158.927 11.8555 159.244 11.8555H162.692C163.008 11.8555 163.251 11.9399 163.42 12.1086C163.588 12.2562 163.715 12.4355 163.799 12.6464L171.423 33.0509C171.444 33.1564 171.455 33.2513 171.455 33.3357C171.455 33.5255 171.392 33.6836 171.265 33.8102C171.138 33.9367 170.991 34 170.822 34H168.07C167.775 34 167.553 33.9367 167.406 33.8102C167.279 33.6626 167.195 33.5255 167.152 33.3989L165.666 29.5395H156.27L154.783 33.3989C154.741 33.5255 154.646 33.6626 154.498 33.8102C154.372 33.9367 154.161 34 153.866 34H151.113ZM157.377 25.9014H164.558L160.952 16.1262L157.377 25.9014ZM176.167 34C175.957 34 175.777 33.9262 175.63 33.7786C175.482 33.6309 175.408 33.4517 175.408 33.2408V12.6464C175.408 12.4144 175.482 12.2246 175.63 12.0769C175.777 11.9293 175.957 11.8555 176.167 11.8555H184.361C186.913 11.8555 188.927 12.446 190.403 13.6271C191.88 14.8081 192.618 16.5269 192.618 18.7836C192.618 20.3442 192.227 21.6413 191.447 22.6747C190.688 23.7081 189.665 24.4568 188.379 24.9208L192.997 32.9877C193.061 33.1142 193.092 33.2302 193.092 33.3357C193.092 33.5255 193.018 33.6836 192.871 33.8102C192.744 33.9367 192.597 34 192.428 34H189.549C189.191 34 188.916 33.9051 188.727 33.7153C188.537 33.5255 188.389 33.3357 188.284 33.1459L184.203 25.6484H179.805V33.2408C179.805 33.4517 179.732 33.6309 179.584 33.7786C179.457 33.9262 179.278 34 179.046 34H176.167ZM179.805 22.0736H184.266C185.553 22.0736 186.512 21.7889 187.145 21.2195C187.778 20.6289 188.094 19.8064 188.094 18.7519C188.094 17.6974 187.778 16.8749 187.145 16.2844C186.533 15.6728 185.574 15.367 184.266 15.367H179.805V22.0736ZM198.453 34C198.242 34 198.063 33.9262 197.915 33.7786C197.768 33.6309 197.694 33.4517 197.694 33.2408V12.6464C197.694 12.4144 197.768 12.2246 197.915 12.0769C198.063 11.9293 198.242 11.8555 198.453 11.8555H212.373C212.605 11.8555 212.794 11.9293 212.942 12.0769C213.09 12.2246 213.163 12.4144 213.163 12.6464V14.7343C213.163 14.9452 213.09 15.1244 212.942 15.2721C212.794 15.4197 212.605 15.4935 212.373 15.4935H201.965V21.0929H211.677C211.909 21.0929 212.098 21.1667 212.246 21.3144C212.394 21.4409 212.467 21.6202 212.467 21.8522V23.8135C212.467 24.0455 212.394 24.2353 212.246 24.383C212.098 24.5095 211.909 24.5728 211.677 24.5728H201.965V30.362H212.626C212.858 30.362 213.047 30.4358 213.195 30.5834C213.343 30.731 213.416 30.9209 213.416 31.1528V33.2408C213.416 33.4517 213.343 33.6309 213.195 33.7786C213.047 33.9262 212.858 34 212.626 34H198.453Z" fill="#40A3F8"/>
<rect x="219" y="29" width="7" height="7" rx="3.5" fill="#40A3F8"/>
</svg>


